PathFileType	4	(X/Y/Z)	 Patient4_HipIso.trc
DataRate	CameraRate	NumFrames	NumMarkers	Units	OrigDataRate	OrigDataStartFrame	OrigNumFrames
100	100	5	33	mm	100	2360	2696
Frame#	Time	Sacral			L.Shoulder			Chest			R.Shoulder			Neck			R.ASIS			L.ASIS			R.Thigh.Superior			R.Thigh.Lateral			R.Thigh.Inferior			R.Patella			L.Thigh.Superior			L.Thigh.Lateral			L.Thigh.Inferior			L.Patella			L.Shank.Superior			L.Shank.Lateral			L.Shank.Inferior			R.Shank.Superior			R.Shank.Lateral			R.Shank.Inferior			R.Heel			R.Midfoot.Superior			R.Midfoot.Lateral			R.Toe			L.Heel			L.Midfoot.Lateral			L.Midfoot.Superior			L.Toe			L.Elbow			L.Wrist			R.Elbow			R.Wrist			
		X1	Y1	Z1	X2	Y2	Z2	X3	Y3	Z3	X4	Y4	Z4	X5	Y5	Z5	X6	Y6	Z6	X7	Y7	Z7	X8	Y8	Z8	X9	Y9	Z9	X10	Y10	Z10	X11	Y11	Z11	X12	Y12	Z12	X13	Y13	Z13	X14	Y14	Z14	X15	Y15	Z15	X16	Y16	Z16	X17	Y17	Z17	X18	Y18	Z18	X19	Y19	Z19	X20	Y20	Z20	X21	Y21	Z21	X22	Y22	Z22	X23	Y23	Z23	X24	Y24	Z24	X25	Y25	Z25	X26	Y26	Z26	X27	Y27	Z27	X28	Y28	Z28	X29	Y29	Z29	X30	Y30	Z30	X31	Y31	Z31	X32	Y32	Z32	X33	Y33	Z33	

2360	23.5900	875.007320	1025.551500	479.517820	695.678220	1474.803700	601.256410	600.772090	1372.038600	457.386810	679.988460	1439.214800	279.875670	731.746830	1500.514400	457.268340	656.839170	925.075500	373.309020	666.173340	986.738950	637.295410	627.429690	729.366090	413.301420	719.623470	621.918030	363.484650	646.401310	574.236630	445.979460	649.622010	490.041870	443.073430	595.698060	781.094420	600.796810	654.228880	665.020020	670.579960	574.226930	582.913640	594.293030	566.421080	505.854800	590.871400	607.823180	437.210240	612.283080	705.249270	347.062350	692.473080	682.338560	221.319060	629.596310	672.360170	398.765590	445.213960	743.305420	286.367310	393.518830	689.529720	200.511660	463.882080	812.994260	35.327250	512.570740	645.146610	93.153410	467.186740	733.079590	27.588200	434.915590	524.742860	43.965160	437.011750	833.845340	77.325540	631.100590	748.258120	73.050150	699.181640	664.096860	124.074620	655.012820	540.405150	61.282650	667.797000	784.811340	1299.414600	879.921140	580.857790	1394.335800	1010.235700	766.987000	1137.453500	122.474480	602.585210	1109.889600	-53.790990	
2361	23.6000	873.428890	1026.035300	478.916020	692.918760	1474.433500	601.601560	598.347900	1371.805400	457.349820	677.867070	1439.520900	279.960880	729.378970	1500.428500	457.517640	655.749690	924.877810	372.046780	664.389160	985.416140	636.385860	627.198610	729.237790	412.032200	719.346070	621.761050	362.640840	645.762630	574.127080	444.860720	649.193540	489.832610	442.013280	597.538510	776.539490	600.884580	659.646610	662.210270	670.190190	581.102840	577.707580	594.996770	575.681150	500.190120	591.694030	620.110720	432.922180	613.148930	721.713620	347.629790	693.663450	704.346440	220.722810	632.377810	671.743530	398.854580	444.536530	743.357910	286.265500	393.063420	689.463680	200.438400	463.467010	813.219910	35.462410	512.656430	645.014530	93.280300	467.005950	733.087950	27.565410	434.914550	524.729060	43.901760	436.999110	861.650390	83.240130	633.812810	776.742430	76.216110	702.647520	689.646000	123.512400	658.729060	569.349670	55.335790	672.825260	785.244140	1298.516700	878.855100	581.648250	1393.191300	1009.628300	767.657410	1138.079800	123.482510	603.788210	1111.296800	-53.321850	
2362	23.6100	871.765200	1026.476600	478.210240	690.137390	1473.969000	601.877320	595.837160	1371.468400	457.395260	675.600220	1439.663900	280.250090	726.923520	1500.299600	457.735930	654.497800	924.912660	370.849180	662.797120	984.074650	635.328310	626.946590	729.182130	411.183410	718.650760	621.375850	361.630980	645.242740	573.908940	444.030940	648.492550	489.766910	441.347470	599.732180	771.993650	600.973270	665.421690	659.579350	670.279720	588.675110	572.581240	595.859010	585.616460	494.687290	592.688480	631.931580	429.133480	614.631100	738.371770	348.640170	695.451050	726.321530	220.278750	635.074400	671.577820	398.617190	443.877380	743.173830	286.156830	392.720640	689.317930	200.336150	463.192570	813.202330	35.476610	512.640630	644.947880	93.244080	466.948580	733.094240	27.566290	434.890380	524.672790	43.791350	436.996890	889.104130	89.771410	637.264830	805.156430	80.229840	706.857600	714.378720	123.122800	662.200500	598.466000	50.300050	677.777400	785.565370	1297.604000	877.707150	582.324100	1392.200200	1009.105800	768.182740	1138.588900	124.420100	604.986210	1112.736900	-53.115930	
2363	23.6200	870.294070	1026.618900	477.285920	687.263370	1473.518700	602.044860	593.361820	1371.113400	457.349370	673.458440	1439.805700	280.308170	724.345400	1500.079800	457.999480	653.099670	924.713560	369.601290	661.105160	982.749820	634.307980	625.599300	729.354000	410.837490	717.472050	621.020750	360.601930	644.307680	573.733520	443.358220	647.868410	489.639620	440.492400	602.530580	767.322510	601.117310	671.601320	657.151790	670.668520	597.030210	567.624210	597.017880	596.194890	489.431240	594.231260	645.382200	425.297270	616.763000	755.107670	349.953310	697.682860	748.289180	220.791840	638.205440	671.196470	398.302610	443.229920	742.828490	286.014500	392.411220	689.016420	200.200070	462.996060	813.174010	35.473110	512.674870	644.830320	93.113180	466.999270	733.092770	27.568950	434.919160	524.610350	43.624990	437.071660	916.319210	97.117100	641.416750	832.806760	84.567730	711.151550	743.153870	122.723750	665.799190	627.872620	46.092550	683.078000	785.651920	1296.738800	876.604490	582.683110	1391.330100	1008.205400	768.530700	1138.980600	125.307710	606.034120	1114.117700	-52.955640	
2364	23.6300	868.443180	1026.827600	476.397280	684.390080	1472.965600	602.281800	590.906070	1370.635100	457.246460	671.187930	1439.918000	280.467800	721.771480	1499.814500	458.305270	651.459900	924.683840	368.472840	659.511540	981.377200	633.266600	625.429380	729.398130	410.368100	716.062260	620.654300	359.615690	643.361270	573.477290	442.921600	646.923220	489.320280	439.771000	605.847720	762.616330	601.274410	678.375980	654.926640	671.417420	605.911990	562.839840	598.505370	607.784420	484.439880	596.241700	659.671630	422.020660	619.027950	772.156370	351.625060	700.500980	770.373900	221.486570	642.181030	670.503540	397.959840	442.641240	740.602970	285.138180	391.949800	689.002690	200.122770	462.378420	813.177190	35.535480	512.630920	644.728330	92.979520	466.997220	733.085690	27.625630	434.941070	524.627010	43.457950	437.058040	943.155940	104.784750	645.791380	860.227780	89.516230	715.774600	769.374880	123.710620	670.233520	656.635800	42.895400	688.168210	785.357420	1295.984400	875.510800	582.671690	1390.541900	1007.196000	768.678280	1139.410500	126.033590	606.994380	1115.519000	-52.993940	
